<svg xmlns="http://www.w3.org/2000/svg" width="109" height="137" viewBox="0 0 109 137">
    <defs>
        <linearGradient id="a" x1="102.999%" x2="-2.594%" y1="-7.971%" y2="104.085%">
            <stop offset="0%" stop-color="#DB735C"/>
            <stop offset="100%" stop-color="#F3C57B"/>
        </linearGradient>
    </defs>
    <g fill="url(#a)" fill-rule="nonzero" transform="translate(-2184 -14124)">
        <path d="M2233.057 14169.662a9.67 9.67 0 0 0 5.451 1.672c.674 0 1.33-.067 1.965-.2 4.443-.913 7.786-4.862 7.786-9.595a9.794 9.794 0 0 0-2.856-6.926 9.701 9.701 0 0 0-6.895-2.868c-4.71 0-8.643 3.358-9.551 7.821a9.894 9.894 0 0 0-.199 1.973c0 2.028.613 3.913 1.665 5.477a9.82 9.82 0 0 0 2.634 2.646zM2292.987 14161.537c-.017-14.941-8.473-28.17-21.38-36.218l.023-.032-1.554-1.074c-.879-.43-1.883-.126-2.483.694l-3.747 5.098c-.345.469-.575.988-.464 1.56.081.432.192.722.493 1.016l1.28.902.032.006c10.604 6.145 17.643 16.383 17.66 28.05-.019 11.668-7.058 21.904-17.66 28.05l-.032.005-1.28.901c-.303.295-.414.585-.493 1.017-.111.574.119 1.091.464 1.562l3.747 5.098c.602.817 1.606 1.122 2.483.693l1.554-1.073-.023-.032c12.907-8.049 21.363-21.277 21.38-36.218v-.005z"/>
        <path d="M2252.834 14174.995a.677.677 0 0 0-.15.105l-1.082.76c-.29.285-.398.562-.477.978-.107.55.115 1.05.445 1.5l3.607 4.905c.58.788 1.546 1.08 2.391.666l1.494-1.031-.002-.003c7.58-4.705 12.56-12.51 12.57-21.336v-.004c-.01-8.826-4.99-16.63-12.57-21.336l.002-.002-1.494-1.032c-.843-.414-1.812-.12-2.391.666l-3.607 4.905c-.33.45-.552.95-.445 1.5.08.417.184.696.477.978l1.081.76c.04.038.088.074.151.106 5.364 2.85 8.924 7.813 8.935 13.453-.013 5.647-3.573 10.612-8.935 13.462zM2213.142 14190.497l-1.28-.901-.032-.004c-10.604-6.147-17.643-16.383-17.66-28.05.019-11.668 7.058-21.906 17.66-28.05l.031-.007 1.28-.902c.304-.294.415-.584.497-1.017.11-.573-.12-1.09-.465-1.559l-3.749-5.098c-.602-.82-1.606-1.124-2.483-.694l-1.554 1.072.023.032c-12.907 8.048-21.363 21.275-21.38 36.218v.005c.017 14.94 8.473 28.167 21.38 36.218l-.023.032 1.554 1.073c.877.43 1.883.124 2.483-.693l3.75-5.098c.344-.469.574-.988.464-1.56-.084-.432-.195-.724-.496-1.017z"/>
        <path d="M2205.385 14161.537v.005c.01 8.826 4.99 16.628 12.57 21.336l-.002.002 1.494 1.031c.845.414 1.811.12 2.39-.668l3.607-4.905c.33-.45.553-.95.446-1.5-.08-.416-.184-.696-.477-.977l-1.082-.76a.614.614 0 0 0-.15-.106c-5.364-2.847-8.924-7.813-8.935-13.453.01-5.64 3.571-10.607 8.935-13.454a.73.73 0 0 0 .15-.105l1.082-.76c.29-.282.397-.562.477-.978.107-.55-.115-1.05-.446-1.5l-3.606-4.905c-.58-.788-1.546-1.08-2.391-.666l-1.494 1.031.002.003c-7.58 4.698-12.56 12.503-12.57 21.33zM2242.914 14184.466c-.023-.084-.065-.157-.092-.24l-.01-.027a4.597 4.597 0 0 0-1.484-2.118c-.029-.023-.06-.042-.092-.065a4.786 4.786 0 0 0-.642-.414c-.06-.032-.127-.057-.192-.086a4.536 4.536 0 0 0-.64-.248c-.03-.009-.055-.023-.084-.032-.07-.019-.136-.019-.205-.035-.19-.042-.38-.08-.578-.1-.144-.014-.286-.014-.43-.014-.145 0-.285 0-.43.015a4.418 4.418 0 0 0-.577.099c-.069.014-.136.016-.205.035-.029.009-.054.023-.083.032a4.536 4.536 0 0 0-.64.248c-.063.03-.13.054-.19.086a4.553 4.553 0 0 0-.641.412c-.03.023-.063.042-.092.065a4.576 4.576 0 0 0-1.481 2.116c-.004.01-.008.02-.01.03-.028.082-.07.153-.093.237-.016.057-19.348 70.832-19.344 70.832-.514 2.38.902 4.776 3.268 5.432 2.366.656 4.805-.675 5.577-2.984 0 0 2.314-8.45 5.339-19.512 8.192 6.972 25.473 21.683 25.473 21.68a4.577 4.577 0 0 0 3.278.96c.454.016.912-.016 1.372-.142 2.366-.656 3.783-3.051 3.27-5.432.006.002-19.327-70.773-19.342-70.83zm-4.445 18.638c1.098 4.02 2.328 8.51 3.596 13.15-2.243 1.17-5.464 2.846-8.385 4.366a82723.91 82723.91 0 0 0 4.789-17.516zm6.087 22.26l5.038 18.42-15.332-13.065c3.621-1.885 7.43-3.866 10.294-5.354z"/>
    </g>
</svg>
