<svg xmlns="http://www.w3.org/2000/svg" width="100" height="111" viewBox="0 0 100 111">
    <defs>
        <linearGradient id="a" x1="102.999%" x2="-2.594%" y1="-7.971%" y2="104.085%">
            <stop offset="0%" stop-color="#DB735C"/>
            <stop offset="100%" stop-color="#F3C57B"/>
        </linearGradient>
    </defs>
    <g fill="url(#a)" fill-rule="nonzero" stroke="url(#a)" transform="translate(-2190 -7298)">
        <path d="M2232.81 7349.654l-16.22 2.173 11.872 11.367-2.842 16.048 14.38-7.69 14.38 7.69-2.842-16.048 11.872-11.367-16.22-2.173-7.19-14.878-7.19 14.878zm25.082 4.012l-9.03 8.692 2.174 12.37-11.036-5.85-11.036 5.85 2.174-12.37-9.03-8.692 12.374-1.672 5.518-11.367 5.518 11.367 12.374 1.672z"/>
        <path d="M2264.58 7345.809l-5.183-11.033-5.686 11.702 2.174 1.003 3.512-6.854 3.511 7.522 8.36 1.17-6.019 5.684 1.505 8.358-6.856-3.677-1.17 2.173 11.37 6.185-2.173-12.036 8.862-8.525zM2221.272 7361.857l-1.17-2.173-6.856 3.677 1.505-8.358-6.02-5.684 8.36-1.17 3.512-7.522 3.512 6.854 2.174-1.003-5.686-11.702-5.183 11.033-12.207 1.672 8.862 8.525-2.173 12.036z"/>
        <path stroke-linecap="round" d="M2206.39 7321.236c7.358-7.523 17.056-12.37 27.423-13.708.836 2.675 3.177 4.848 6.187 4.848 3.511 0 6.521-2.842 6.521-6.52 0-3.677-2.842-6.519-6.521-6.519a6.358 6.358 0 0 0-6.354 5.684c-11.036 1.337-21.403 6.52-29.095 14.376l1.84 1.839zm33.61-19.391c2.174 0 4.013 1.839 4.013 4.012 0 2.173-1.84 4.012-4.013 4.012-2.174 0-4.013-1.84-4.013-4.012 0-2.34 1.84-4.012 4.013-4.012zM2192.511 7368.042l2.341-.669c-1.337-4.346-1.839-8.692-1.839-13.206 0-6.185 1.17-12.37 3.512-18.054.501.168 1.17.168 1.672.168 2.34 0 4.514-1.17 5.685-3.177 1.84-3.176.669-7.02-2.341-8.86-1.003-.5-2.174-.835-3.344-.835-2.341 0-4.515 1.17-5.686 3.176-.668 1.337-1.003 3.176-.501 4.848.334 1.337 1.17 2.507 2.34 3.343a49.937 49.937 0 0 0-3.845 19.224c0 4.68.669 9.528 2.006 14.042zm2.341-40.287c.67-1.17 2.007-2.006 3.512-2.006.669 0 1.338.167 2.006.502 1.84 1.17 2.509 3.51 1.505 5.516-1.17 1.839-3.678 2.508-5.518 1.337-1.003-.501-1.505-1.337-1.839-2.507-.334-.836-.167-2.006.334-2.842zM2202.544 7382.418c.836-.836 1.338-1.672 1.672-2.842.502-1.672.168-3.343-.668-4.848-1.171-2.006-3.345-3.343-5.686-3.343-1.17 0-2.173.334-3.177.836-3.01 1.672-4.013 5.683-2.34 8.86 1.17 2.006 3.344 3.343 5.685 3.343.836 0 1.672-.167 2.508-.502 6.521 8.526 15.55 14.878 25.918 17.72l.669-2.34c-9.699-2.842-18.394-8.86-24.58-16.884zm-8.026-2.675c-.502-1.003-.669-2.006-.334-3.009.334-1.003 1.003-1.838 1.839-2.34.669-.334 1.338-.501 2.007-.501 1.504 0 2.842.835 3.511 2.006.502 1.002.669 2.005.334 3.008-.334 1.003-1.003 1.84-1.839 2.34-1.84 1.17-4.347.335-5.518-1.504zM2273.275 7387.099a46.962 46.962 0 0 1-27.088 13.373c-.335-1.003-.836-2.006-1.672-2.842-1.17-1.17-2.843-2.006-4.682-2.006-3.512 0-6.522 2.842-6.522 6.352 0 3.51 2.843 6.52 6.355 6.52a6.358 6.358 0 0 0 6.354-5.684c10.869-1.337 20.901-6.352 28.76-14.209l-1.505-1.504zM2240 7406.155v1.338-1.338c-2.174 0-4.013-1.839-4.013-4.012 0-2.173 1.84-4.012 4.013-4.012 1.003 0 2.007.502 2.843 1.17.668.836 1.17 1.84 1.17 2.842 0 2.34-1.84 4.012-4.013 4.012zM2277.623 7325.916c-.836.836-1.338 1.672-1.672 2.842-.502 1.672-.335 3.343.501 5.015 1.171 2.006 3.345 3.343 5.686 3.343 1.17 0 2.173-.334 3.177-.835 1.505-.836 2.675-2.174 3.01-3.845.501-1.672.334-3.343-.502-5.015-1.17-2.006-3.344-3.343-5.685-3.343-.836 0-1.672.167-2.341.501-6.856-9.194-16.722-15.88-27.758-18.555l-.669 2.507c10.535 2.508 19.899 8.693 26.253 17.385zm8.026 2.675c.502 1.003.669 2.006.335 3.009-.335 1.003-1.004 1.839-1.84 2.34-1.84 1.003-4.347.335-5.35-1.504-.502-1.003-.67-2.006-.335-3.01.334-1.002 1.003-1.838 1.84-2.34.668-.334 1.337-.5 2.006-.5 1.338 0 2.675.835 3.344 2.005zM2285.482 7373.558c2.675-6.185 4.013-12.704 4.013-19.558 0-4.18-.502-8.525-1.672-12.537l-2.508.668a47.133 47.133 0 0 1 1.505 11.869c0 6.352-1.338 12.537-3.846 18.388-.502-.167-1.17-.167-1.84-.167-2.34 0-4.347 1.17-5.518 3.176-.836 1.504-1.17 3.176-.668 4.848.501 1.671 1.504 3.176 3.01 4.012 1.003.668 2.173.836 3.344.836 2.34 0 4.347-1.17 5.518-3.177.836-1.504 1.17-3.176.669-4.847 0-1.338-.837-2.508-2.007-3.51zm-.669 7.188c-.669 1.17-2.006 2.006-3.511 2.006-.67 0-1.338-.167-2.007-.501-.836-.502-1.505-1.338-1.84-2.508-.334-1.003-.166-2.173.502-3.009.67-1.17 2.007-2.006 3.512-2.006.669 0 1.338.168 2.006.502.836.501 1.505 1.337 1.84 2.507.334 1.003.167 2.006-.502 3.01z"/>
    </g>
</svg>
