<svg xmlns="http://www.w3.org/2000/svg" width="93" height="75" viewBox="0 0 93 75">
    <defs>
        <linearGradient id="a" x1="102.999%" x2="-2.594%" y1="-7.971%" y2="104.085%">
            <stop offset="0%" stop-color="#DB735C"/>
            <stop offset="100%" stop-color="#F3C57B"/>
        </linearGradient>
    </defs>
    <g fill="url(#a)" fill-rule="nonzero" stroke="url(#a)" transform="translate(-374 -6946)">
        <path d="M376.719 6959.9h53.791c1.011 5 5.561 9.1 11.122 9.1s10.111-4.1 11.122-9.1h11.527c.91 0 1.719-.6 1.719-1.5s-.809-1.5-1.719-1.5h-11.425c-.708-6-5.46-9.9-11.224-9.9-5.763 0-10.616 3.9-11.223 9.9h-53.69c-.91 0-1.719.6-1.719 1.5s.809 1.5 1.719 1.5zm64.913-9.8c4.348 0 7.887 3.5 7.887 7.8s-3.539 7.8-7.887 7.8c-4.348 0-7.886-3.5-7.886-7.8s3.538-7.8 7.886-7.8zM464.281 6982.9h-46.005c-.708-6-5.46-9.9-11.224-9.9-5.763 0-10.515 3.9-11.223 9.9h-19.11c-.91 0-1.719.6-1.719 1.5s.809 1.5 1.719 1.5h19.211c1.011 5 5.561 9.1 11.122 9.1s10.111-4.1 11.122-9.1h46.107c.91 0 1.719-.6 1.719-1.5s-.809-1.5-1.719-1.5zm-57.229 8.8c-4.348 0-7.886-3.5-7.886-7.8s3.538-7.8 7.886-7.8c4.348 0 7.887 3.5 7.887 7.8s-3.539 7.8-7.887 7.8zM464.281 7007.9H441.33c-.708-6-5.46-9.9-11.223-9.9-5.764 0-10.617 3.9-11.224 9.9H376.72c-.91 0-1.719.6-1.719 1.5s.809 1.5 1.719 1.5h42.264c1.011 6 5.561 9.1 11.123 9.1 5.56 0 10.11-3.1 11.122-9.1h23.053c.91 0 1.719-.6 1.719-1.5s-.809-1.5-1.719-1.5zm-34.175 8.9c-4.348 0-7.887-3.5-7.887-7.8s3.539-7.8 7.887-7.8c4.347 0 7.886 3.5 7.886 7.8s-3.539 7.8-7.886 7.8z"/>
    </g>
</svg>
