<svg xmlns="http://www.w3.org/2000/svg" width="96" height="96" viewBox="0 0 96 96">
    <defs>
        <linearGradient id="a" x1="102.999%" x2="-2.594%" y1="-7.971%" y2="104.085%">
            <stop offset="0%" stop-color="#DB735C"/>
            <stop offset="100%" stop-color="#F3C57B"/>
        </linearGradient>
    </defs>
    <path fill="url(#a)" fill-rule="nonzero" stroke="url(#a)" d="M92.423 0H16.729c-.871 0-1.577.705-1.577 1.575v13.673H1.577c-.871 0-1.577.705-1.577 1.575v75.602C0 93.295.706 94 1.577 94h75.694c.871 0 1.577-.705 1.577-1.575V78.752h13.575c.871 0 1.577-.705 1.577-1.575V1.575C94 .705 93.294 0 92.423 0zm-26.28 75.354c-.078.078-.146.161-.203.249H52.942l22.752-22.388v12.6l-9.551 9.54zm9.551-5.086v5.334h-5.34l5.34-5.334zM41.938 3.15H54.36L42.25 15.248H29.894l11.814-11.8a1.56 1.56 0 0 0 .23-.298zm48.908 30.734L78.848 45.69V33.53l11.998-11.983v12.337zm0-16.792L78.848 29.075V16.881L90.846 4.755v12.337zm-72.54 26.51c.025-.022.053-.038.077-.062l25.172-25.142H55.91L18.306 55.956V43.602zm0 16.809L60.37 18.398h12.543L18.306 73.586V60.411zm57.723-45.163H63.523l11.815-11.8c.09-.09.165-.192.229-.298h12.432l-11.97 12.098zm-16.966 0H46.71l11.806-11.79c.094-.095.168-.2.233-.308h12.428L59.063 15.248zm-19.968 3.15L18.306 39.162V26.823l8.435-8.425h12.354zm-20.789 3.97v-3.97h3.974l-3.974 3.97zm57.388-2.3v12.158l-43.21 43.158a1.598 1.598 0 0 0-.18.218h-11.56l54.95-55.534zm0 16.612v12.113l-27.245 26.81H36.725L75.694 36.68zm3.154 13.432l11.998-11.806v12.375L78.848 62.664V50.112zM22.412 3.15l-4.106 4.101v-4.1h4.106zm-4.106 8.556l7.952-7.942c.179-.179.3-.39.374-.614h10.916L25.434 15.248h-7.128v-3.542zm57.388 79.145H3.154V18.398h11.998v58.78c0 .87.706 1.575 1.577 1.575h58.965v12.098zm3.154-23.732l11.998-11.984v12.34l-8.137 8.127h-3.86v-8.483zm8.32 8.484l3.678-3.673v3.673h-3.678z" transform="translate(1 1)"/>
</svg>
