<svg xmlns="http://www.w3.org/2000/svg" width="146" height="153" viewBox="0 0 146 153">
    <defs>
        <linearGradient id="a" x1="102.999%" x2="-2.594%" y1="-7.971%" y2="104.085%">
            <stop offset="0%" stop-color="#DB735C"/>
            <stop offset="100%" stop-color="#F3C57B"/>
        </linearGradient>
    </defs>
    <g fill="none" fill-rule="evenodd">
        <path fill="url(#a)" fill-rule="nonzero" d="M135.64 3.631C133.097.805 129.518 0 125.767 0H52.24c-3.753 0-7.33.805-9.872 3.631C40.438 5.754 39.36 7.474 39 10.233V142.77c.36 2.758 1.438 4.476 3.364 6.599 2.543 2.826 6.12 3.631 9.873 3.631h73.526c3.753 0 7.33-.805 9.873-3.631 1.928-2.123 3.006-3.843 3.364-6.6V10.234c-.356-2.76-1.434-4.479-3.36-6.602zm-56.215 3.13h19.71c1.583 0 2.869 1.31 2.869 2.928 0 1.616-1.284 2.928-2.87 2.928h-19.71c-1.583 0-2.869-1.31-2.869-2.928 0-1.616 1.283-2.927 2.87-2.927zm8.533 142.725c-3.857 0-6.985-3.191-6.985-7.127 0-3.935 3.128-7.126 6.985-7.126 3.858 0 6.986 3.191 6.986 7.126 0 3.936-3.128 7.127-6.986 7.127zm41.616-17.774H47.836V18.031h81.736v113.681h.002z" transform="translate(7)"/>
        <g stroke="url(#a)" stroke-width="14" transform="translate(7 42)">
            <ellipse cx="39.347" cy="31.05" fill="#FFF" rx="30.604" ry="31.05"/>
            <path stroke-linecap="round" d="M14.345 54.199L0 68.754"/>
        </g>
    </g>
</svg>
