<svg xmlns="http://www.w3.org/2000/svg" width="82" height="82" viewBox="0 0 82 82">
    <g fill="none" fill-rule="evenodd">
        <path fill="#FCFBFA" d="M81.362 40.681c0 22.467-18.214 40.681-40.68 40.681C18.213 81.362 0 63.148 0 40.682 0 18.212 18.214 0 40.681 0s40.681 18.213 40.681 40.681"/>
        <path fill="#514E4E" d="M40.723 18.013c-6.388 0-7.189.027-9.697.142-2.504.114-4.214.512-5.71 1.093-1.546.601-2.858 1.405-4.165 2.713-1.308 1.307-2.112 2.62-2.713 4.166-.582 1.496-.979 3.205-1.093 5.71-.115 2.508-.142 3.308-.142 9.696s.027 7.188.142 9.697c.114 2.504.511 4.213 1.093 5.71.601 1.546 1.405 2.858 2.713 4.165 1.307 1.308 2.62 2.112 4.165 2.713 1.496.581 3.206.98 5.71 1.093 2.508.115 3.31.142 9.697.142 6.388 0 7.188-.027 9.697-.142 2.503-.114 4.213-.512 5.71-1.093 1.546-.6 2.858-1.405 4.165-2.713 1.308-1.307 2.112-2.619 2.712-4.166.582-1.496.98-3.205 1.094-5.709.114-2.509.142-3.309.142-9.697 0-6.388-.028-7.188-.142-9.697-.114-2.504-.512-4.213-1.094-5.709-.6-1.547-1.404-2.859-2.712-4.166-1.307-1.308-2.619-2.112-4.166-2.713-1.496-.58-3.206-.979-5.709-1.093-2.509-.115-3.309-.142-9.697-.142m0 4.238c6.28 0 7.023.024 9.504.137 2.293.105 3.538.488 4.367.81 1.098.427 1.881.937 2.704 1.76.823.823 1.333 1.606 1.76 2.703.321.83.705 2.075.81 4.368.113 2.48.136 3.224.136 9.504 0 6.28-.023 7.024-.136 9.504-.105 2.293-.489 3.54-.81 4.367-.427 1.098-.937 1.881-1.76 2.705-.823.822-1.606 1.332-2.704 1.76-.829.321-2.074.705-4.367.81-2.48.112-3.224.136-9.504.136-6.28 0-7.024-.024-9.504-.137-2.293-.104-3.539-.488-4.368-.81-1.097-.427-1.88-.937-2.704-1.759-.823-.824-1.333-1.607-1.759-2.705-.322-.828-.706-2.074-.81-4.367-.113-2.48-.137-3.224-.137-9.504 0-6.28.024-7.024.137-9.504.104-2.293.488-3.538.81-4.368.426-1.097.936-1.88 1.76-2.704.822-.822 1.606-1.332 2.703-1.759.83-.322 2.075-.705 4.368-.81 2.48-.113 3.224-.137 9.504-.137"/>
        <path fill="#514E4E" d="M40.723 49.373a7.84 7.84 0 1 1 0-15.68 7.84 7.84 0 0 1 0 15.68m0-19.917c-6.67 0-12.078 5.407-12.078 12.077 0 6.671 5.408 12.078 12.078 12.078 6.67 0 12.077-5.407 12.077-12.078 0-6.67-5.407-12.077-12.077-12.077"/>
        <path fill="#FFF" d="M56.1 28.979a2.822 2.822 0 1 1-5.644 0 2.822 2.822 0 0 1 5.644 0"/>
    </g>
</svg>
