<svg xmlns="http://www.w3.org/2000/svg" width="1600" height="1405" viewBox="0 0 1600 1405">
    <g fill="none" fill-rule="evenodd">
        <path fill="#DB735C" d="M1201.944 1399.966c2.077-3.208 5.905-6.46 5.866-9.653-.076-7.107 4.882-6.246 8.674-6.51.794-.054 1.715 4.95 2.972 7.434.975 1.94 2.535 3.578 3.838 5.348 1.237-1.07 3.35-1.994 3.563-3.247 1.309-7.214.517-14.025 4.867-21.57 4.39-7.605 4.906-17.27 14.499-21.523 1.203-.542 2.501-2.06 2.736-3.318 2.718-14.422 5.42-28.865 7.63-43.36.392-2.608-.99-7.596-2.418-7.94-5.467-1.337-12.402-3.34-16.655-1.082-4.599 2.457-7.403 4.42-12.926 2.615-4.403-1.441-9.98-1.138-14.548.13-8.52 2.365-15.351-.37-22.783-3.99-11.669-5.688-18.665-19.041-33.154-19.953-.677-.038-1.209-1.347-1.944-1.864-1.942-1.372-4.508-4.091-5.836-3.605-1.968.74-3.698 3.565-4.449 5.864-4.795 14.62-.74 28.302 4.171 42.143 2.237 6.315 2.665 13.457 2.884 20.256.219 6.972-2.858 14.646-.896 20.877 4.192 13.312 10.684 25.885 16.36 38.711.412.92 1.873 1.502 2.972 1.956 6.717 2.808 13.46 5.528 17.826 7.315 6.342-2.697 10.737-4.555 15.145-6.432.532.474 1.074.935 1.606 1.398z"/>
        <path fill="#F0A76C" d="M1146.757 1211.615c-4.438 2.096-8.902 4.298-12.928 7.079-10.88 7.509-20.414 6.684-30.996-1.658-10.272-8.092-21.809-14.745-33.345-20.996-.247-.134-3.752-1.175-10.518-3.122l10.518-230.408h41.598l80.173 79.364 185.432 102.482c-3.457 8.13-5.275 12.862-5.456 14.195-14.033 14.588-14.71 32.908-20.689 49.016-2.988 8.049-19.492 12.932-31.217 10.518-10.509-2.156-21.032-4.993-31.663-5.599-13.72-.784-25.203 6.287-36.615 13.32-9.325 5.757-19.808 9.637-29.128 15.41-3.63 2.248-5.465 7.41-8.97 12.464-.058-10.89-10.905-11.787-16.62-18.107-5.867-6.495-12.97-11.873-19.88-18.058-3.041-.458-7.213-1.074-11.381-1.69 3.489-1.768 8.762-2.702 10.07-5.493 1.947-4.176 1.331-9.666 1.252-14.59-.01-1.024-2.888-3.142-3.634-2.824-6.118 2.57-12.038 5.62-15.703 7.394 2.655 5.982 4.276 9.648 5.902 13.312-4.891-4.774-10.488-4.708-16.202-2.009z"/>
        <path fill="#F3C57B" d="M1574.454 768.545c-.553 3.4-2.688 6.633-4.492 9.727-4.38 7.52.053 13.332 3.782 19.036 1.346 2.065 4.313 3.068 6.545 4.57.782-.684 1.553-1.367 2.327-2.047-.975 3.064-1.71 6.231-2.958 9.18-3.03 7.21-3.12 14.045-2.148 22.122 1.387 11.453.36 23.517-7.51 34.094-6.284 8.474-10.437 18.532-15.484 27.92-.71 1.342-1.003 2.91-1.58 4.327-8.122 19.79-19.287 38.155-24.805 59.262-2.509 9.607-10.712 17.678-16.17 26.555-4.78 7.779-8.603 16.273-14.215 23.364-4.331 5.452-10.106 11.17-16.425 13.363-21.056 7.31-32.154 24.691-44.76 40.82-4.092 5.247-9.506 9.589-12.88 15.208-6.208 10.356-11.318 21.376-17.006 32.063-1.321 2.5-2.56 5.645-4.767 6.987-11.07 6.735-19.834 15.015-25.237 25.675-1.792 3.536-63.656-29.568-185.592-99.311l-79.77-77.956-35.913 1.151 8.907-212.963 160.544-12.956 161.828 39.536c112.13-8.156 168.056-11.398 167.779-9.727z"/>
        <path fill="#D4B897" d="M1050.018 1197.692c-3.013-11.644-12.338-15.746-22.22-19.94-4.633-1.973-9.122-6.31-11.682-10.73-6-10.36-10.98-21.325-15.897-32.271-.944-2.093-.735-6.356.708-7.606 8.434-7.374 5.78-16.813 2.359-23.83-5.945-12.243-14.334-23.38-22.27-34.564-3.422-4.838-8.599-5.9-14.865-4.252-4.728 1.248-10.027.255-15.779.255 19.452-21.45 19.958-44.148.761-63.255-2.873 7.28-6.388 13.725-7.943 20.612-3.207 14.25-11.18 21.511-25.977 21.007-2.665-.09-5.373.629-8.6 1.036 1.168-7.837 4.782-12.37 12.81-10.684 6.115 1.289 7.55-1.915 8.306-6.689 1.466-9.154 2.545-18.394 4.648-27.405.98-4.253 3.351-8.525 6.133-11.932 4.965-6.053 10.076-11.7 8.994-20.376-.165-1.367.303-3.674 1.227-4.18 12.247-6.774 1.199-15.136 3.077-22.545a680.383 680.383 0 0 0-3.375-1.546c-8.421 11.25-16.772 22.552-25.318 33.697-1.644 2.14-3.901 3.93-6.182 5.406-3.352 2.17-6.945 3.944-10.483 5.818-24.381 12.936-28.105 17.87-33.106 43.392l-13.585.746a94817.97 94817.97 0 0 0-10.348-17.282c1.504-1.833 4.647-3.939 4.487-5.755-.934-10.551-4.047-20.273-11.496-28.5-2.968-3.277-5.072-8.14-5.716-12.553-1.214-8.314-3.383-14.089-13.553-13.271-2.66.203-7.197-2.119-8.017-4.344-1.532-4.138-2.743-10-.908-13.447 3.825-7.15 3.632-9.707-4.385-11.72-1.158-.291-2.367-.418-3.43-.604-3.251-11.845-9.428-11.945-19.649-15.79-16.736-6.276-35.452-5.14-50.877-14.918-3.894-2.468-7.399-5.536-11.272-8.047-8.55-5.525-17.365-7.715-27.998-5.749-6.562 1.22-16.695 1.457-30.4.71l-9.964-247.265 426.91 8.777-18.34 565.873c-10.044-4.964-15.64-7.057-16.785-6.279z"/>
        <path fill="#D5AC6E" d="M1051.095 255.318c8.27-3.66 15.211-6.725 22.141-9.783-13.048-5.528-17.955-3.107-22.141 9.783zm-50.265-15.059c9.317 10.58 22.007 13.03 33.976 17.236 7.52 2.64 12.899 6.012 15.008 14.223.835 3.257 3.563 6.768 6.416 8.602 9.822 6.307 19.788 12.548 30.274 17.63 9.225 4.476 27.766-4.273 34.803-15.665 6.11-9.894 12.38-19.782 17.403-30.229 3.797-7.927 5.95-16.68 8.5-25.167 2.467-8.217 4.172-16.676 6.852-24.816 3.156-9.633 6.266-18.751 4.596-29.522-2.039-13.124-1.639-26.626-2.275-39.966-.066-1.233-.423-2.735.12-3.664 8.355-14.333 3.906-32.85 15.12-46.246.898-1.07 1.157-2.679 1.924-4.555-2.734-1.327-5.057-2.468-7.432-3.621 0-.973-.318-2.037.048-2.742 4.872-9.215 10.544-18.09 14.58-27.648 3.862-9.169 6.066-19.036 8.972-28.602.608-1.979.433-4.904 1.73-5.821 5.241-3.695 10.916-6.773 15.757-9.686 1.761 3.285 3.9 6.384 5.13 9.808 2.139 5.936 5.038 12.031 5.259 18.145.415 12.092 1.219 23.164 15.56 26.662-7.108 13.2-7.212 13.307 3.52 23.095 3.255 2.982 5.289 5.316 2.922 10.124-.88 1.782 1.158 5.128 2.158 7.644.46 1.184 2.316 2.072 2.35 3.13.322 10.362-.764 20.912.844 31.036 1.797 11.323 4.917 22.725 9.51 33.193 3.141 7.155 7.47 5.8 16.11-2.928 5.503-.588 9.67-1.034 14.64-1.569-.924 15.288 12.58 19.268 22.323 25.71 7.497 4.963 11.3 10.68 8.024 18.58-4.136 10.03-.573 19.265.476 28.85.84 7.735 4.344 14.714.407 23.56-1.728 3.896 5.991 12.388 10.127 18.3 1.998 2.872 5.632 4.617 7.694 6.216.145 20.846 14.58 41.397-1.815 62.394h13.262c-.491 6.218-1.61 11.886-1.178 17.429.463 5.823.598 14.476 4.123 16.673 8.32 5.205 13.738 13.735 25.091 16.378 10.295 2.396 24.982 7.361 21.007 25.885 4.449-1.836 6.556-2.701 9.256-3.81.72 5.613 1.426 9.784 9.221 9.34 3.26-.183 6.943 7.14 10.98 11.665 1.412-.878 3.634-2.258 5.756-3.58 5.861 4.372 11.636 8.764 17.576 12.943.359.252 1.914-1.194 2.833-1.79.692 3.348 1.438 6.954 2.178 10.493-2.31-1.194-4.746-3.54-7.192-3.565-9.72-.079-11.857 3.914-6.945 12.69 1.919 3.438 4.156 7.288 7.296 9.325 6.353 4.115 8.86 9.773 9.684 16.806 1.565 13.357 7.292 26.043 5.538 40.063-.511 3.985 2.456 8.963 5.085 12.573 1.644 2.297 5.528 3.45 8.605 3.924.81.12 2.415-4.117 3.443-6.44.812-1.82 1.293-3.79 1.899-5.66 7.014 7.51 13.646 14.621 20.276 21.733l2.815-.97v-11.517c8.07 7.937 7.673 17.526 6.62 27.55-.965 9.027-1.347 18.153-1.247 27.223.015 1.688 4.21 5.133 5.278 4.71 7.63-3 9.386 1.314 10.18 7.273.392 3.032.026 6.304 1.018 9.11 1.13 3.168 2.78 7.639 5.291 8.543 7.531 2.72 10.557 8.555 14.072 14.86 4.146 7.435 9.753 14.03 14.242 21.28 2.688 4.343 5.596 9.056 6.396 13.935 1.934 11.74 10.388 17.353 18.764 23.803 4.757-8.755 9.094-16.732 13.423-24.707.784.1 1.565.204 2.351.308-1.517 5.953-1.799 12.622-4.797 17.7-6.195 10.493-14.257 19.379-11.537 33.577 1.082 5.65-4.927 12.36-6.334 18.883-.013.06-.013 8.18 0 24.365l-172.768 8.907-159.057-39.678-163.046 8.71 4.605-109.386-96.913-3.696c6.048-265.34 9.794-397.19 11.24-395.549z"/>
        <path fill="#96846F" d="M952.406 132.292c-.784-4.632-.199-9.488-.199-16.307-11.697 5.91-12.247 13.801-12.814 22.184 6.978 1.283 13.42 2.467 17.143 3.157-1.173-2.457-3.548-5.6-4.13-9.034zM700.544 32.078c9.548 2.197 17.179-.341 25.28-4.72 7.15-3.869 6.889-10.138 5.31-15.625-2.15-7.511-8.309-4.125-12.969-2.342-10.676 4.097-21.256 8.87-30.469-2.786-.209-.26-1.115.023-2.708.11-2.756 7.45-5.584 15.102-8.717 23.573 7.41.463 16.116-.082 24.273 1.79zM631.83 165.131c3.627 1.421 8.8-1.036 13.25-1.787 3.657-.624 7.291-1.368 12.01-2.264 1.695-8.413-4.083-13.192-12.01-17.134 1.318-7.275 1.855-14.325 10.979-16.945 2.446-.703 4.993-4.62 5.607-7.469 1.809-8.42 3.954-15.89 13.74-18.404 2.309-.583 4.047-3.387 6.999-6.025-3.856-2.332-6.808-4.117-9.946-6.019.178-.858.079-1.938.575-2.513 7.042-8.227 14.1-16.45 21.338-24.498 1.03-1.146 3.293-2.243 4.614-1.904 10.811 2.806 14.245-3.713 16.176-12.335 18.976 2.791 37.82 8.696 57.119 1.416 8.994-3.4 10.997-13.248 6.871-21.987-4.594-9.747-9.564-12.321-19.663-8.599-2.502.917-7.146-4.04-11.264-6.577 8.215-12.754 23.748 1.765 31.871-11.94.616 4.91 1.242 8.302 1.44 11.711.538 9.271 1.26 9.678 9.606 5.003 1.048-.588 2.176-1.038 3.115-1.479 6.894 2.91 8.2 16.034 19.637 10.524.807 1.754 2.154 6.024 2.815 5.92 14.265-2.266 23.48 10.394 36.247 12.036 11.636 1.497 23.51-1.319 34.701 6.87 3.792 2.765 14.062-2.94 21.16-5.385 2.616-.897 4.634-3.537 6.925-5.38.616.514 1.221 1.028 1.845 1.542-2.86 3.66-5.709 7.318-8.556 10.98.223.774.447 1.55.682 2.327 4.24-.697 8.48-1.387 13.804-2.258l.522 11.379c11.457.336 14.165-3.9 11.526-13.45-.9-3.213 4.176-8.074 6.526-12.183.984.42 1.975.837 2.962 1.255.937 3.12 1.318 6.585 2.983 9.25 1.224 1.956 3.983 3.166 6.283 4.179 3.207 1.41 6.64 2.332 10.14 4.998-11.59 7.657-16.019 17.178-15.364 29.754.109 2.195-4.017 5.454-6.86 6.773-6.44 2.971-13.366 4.88-19.968 7.532-6.864 2.75-8.742 8.756-4.92 14.633 5.101 7.858 3.157 17.399-3.827 23.775-5.151 4.69-10.22 9.887-13.764 15.792-4.196 6.992-1.771 13.54 4.867 18.5 8.235 6.16 16.272 12.585 24.485 18.787 3.62 2.735 7.114 6.478 11.234 7.522 7.144 1.805 14.723 1.866 23.14 2.765-3.6 12.564 6.848 14.725 14.89 19.53 8.025 4.805 16.38 10.005 22.458 16.91 6.212 7.053 2.377 139.519-11.504 397.396l-332.236-8.608c-19.39-310.28-27.81-464.918-25.26-463.916z"/>
        <path fill="#796652" d="M668.196 876.586c-20.004-.361-38.575 3.71-57.022 12.266-20.798 9.637-42.682 17.46-66.053 19.13-1.23.084-2.548.407-3.683.094-16.444-4.525-28.624 4.446-41.647 12.184-11.776 7.008-24.85 11.787-36.75 18.59-5.269 3.02-9.847 8.087-13.29 13.195-3.182 4.729-4.16 10.875-6.58 16.177-4.922 10.793-19.235 17.284-30.746 14.249-5.64-1.482-24.781 1.97-28.087 4.262-4.772-1.224-8.147-2.571-11.613-2.854-4.887-.408-9.903-.502-14.756.114-10.53 1.347-21.007 3.188-31.488 4.912-3.927.647-7.782 2.007-11.72 2.244-15.842.99-21.482 5.706-26.903 20.917-.896 2.508-6.314 5.004-9.46 4.774-7.322-.506-12.936.036-15.83 8.072-.815 2.264-4.299 3.422-5.996 5.54-2.102 2.626-3.55 5.766-5.408 8.59-1.034 1.57-2.034 3.56-3.566 4.346-9.078 4.614-18.18 8.604-29.021 5.839-3.858-.986-8.404.845-12.649 1.222-18.907 1.662-35.564-3.392-50.659-15.263-4.874-3.83-12.114-6.22-18.317-6.31-5.596-.094-8.495-1.93-9.457-6.245-1.75-7.947-2.497-16.106-3.675-24.23 15.932-1.518 23.626-12.668 21.017-26.726-1.474-7.927-.201-16.437-2.064-24.22-3.41-14.244-.328-29.57-9.837-42.964-11.664-16.426-24.837-32.376-29.415-52.845-2.337-10.453-4.22-21.012-6.37-31.51-.609-3-.726-6.4-2.286-8.836-8.724-13.56-17.097-27.449-27.064-40.06-5.869-7.43-10.776-13.96-11.85-24.012-1.936-18.27-15.868-29.914-26.84-43.086-9.396-11.29-18.387-22.926-27.293-34.614-1.73-2.279-2.24-5.49-1.468-9.25 1.647 3.208 3.163 6.48 4.97 9.6 2.464 4.241 3.212 10.352 10.84 9.074 1.282-.219 3.604 3.641 4.896 5.933 3.27 5.798 6.223 11.766 9.336 17.71 10.388-6.728 10.615-11.319 1.929-18.968-12.433-10.957-14.258-14.636-10.262-26.458 3.665 7.908 7.315 15.82 11.272 24.365 1.316-.718 3.237-1.747 5.052-2.737 3.031 4.247 6.08 8.504 10.56 14.77 4.18-13.602 3.868-23.59-3.12-33.567-11.596-16.54-23.68-32.933-33.287-50.617-6.185-11.385-3.217-24.648 2.267-36.509 6.421-13.895 7.078-27.721.293-41.657-.4-.815-.967-1.714-.94-2.554.497-13.549 4.513-26.01 11.3-39.533 2.223 10.653 4.027 19.326 5.837 28.004.936.193 1.878.384 2.82.583 2.155-3.359 5.046-6.447 6.357-10.106 6.5-18.08 20.304-28.605 36.506-37.1 4.54-2.378 8.554-5.88 12.514-9.22 11.483-9.688 21.803-21.305 34.58-28.686 7.836-4.53 19.418-3.865 29.18-3.262 6.442.395 19.19-1.711 23.507-6.343 3.45-3.71 7.87-7.333 12.56-8.914 11.536-3.894 23.819-5.38 32.278-16.09 2.304-2.918 8.183-3.634 12.56-4.148 6.556-.774 13.883 1.243 19.744-.965 16.89-6.338 33.72-13.246 49.565-21.796 10.984-5.936 16.825-17.098 21.567-28.992 3.16-7.904 9.416-14.807 15.204-21.335 3.58-4.031 9.116-6.262 13.377-9.773 5.057-4.173 3.944-8.459-.904-12.115-1.133-.848-3.153-.986-3.736-2.032-6.442-11.471-.97-31.737 9.46-39.65 4.912-3.726 8.966-9.104 12.157-14.474 5.195-8.734 8.277-11.641 15.854-11.25a6918.657 6918.657 0 0 0-6.844 7.91c5.553 9.538 10.345 18.48 15.894 26.914 1.9 2.89 5.708 4.522 8.648 6.73 1.155-3.079 2.005-6.32 3.553-9.198 1.522-2.839 3.738-5.301 6.749-9.449-4.48-4.797-9.969-10.684-16.018-17.172 1.801-2.923 3.654-5.92 5.876-9.503a3951.496 3951.496 0 0 0-8.427-6.467c.252-.904.504-1.803.754-2.707 12.799 2.91 25.595 5.831 39.598 9.016 3.29-3.834 7.773-9.075 13.542-15.802-5.26-.891-7.551-1.278-10.119-1.716v-28.867c13.013 6.246 18.355 2.61 18.093-12.53 3.624 1.145 7.172 2.273 12.745 4.03l-3.038-20.512c11.544 1.454 17.97-4.838 21.818-16.215 3.843 5.584 6.602 9.59 9.783 14.206 4.994-5.432-.96-15.726 10.178-14.341-2.02-4.459-3.487-7.697-4.955-10.931l3.173-1.268c1.311 2.836 2.62 5.678 4.357 9.439 3.215-1.238 6.457-2.48 10.064-3.863 2.186 1.68 4.525 3.476 8.144 6.259 1.295-4.296 2.367-7.606 3.295-10.957 1.97-7.094 5.798-8.619 12.107-5.378 4.782 2.453 10.53 3.387 14.79 6.47 6.321 4.574 11.946 10.216 17.425 15.836 5.014 5.136 9.442 10.844 14.125 16.304l2.044-1.421-3.148 12.879c1.802.232 2.685.593 2.94.339 11.625-11.698 24.427-9.799 38.241-4.37 3.627 1.421 46.518 711.634 36.366 711.455z"/>
        <g stroke="#FFF" stroke-width="6">
            <path stroke-linecap="square" d="M635.576 150.576l34.554 731.212M660.34 627.879l425.593 10.353-20.488 575.629M1000.619 230.03l-9.79 400.152"/>
            <path d="M1084.205 752.206l161.14-12.63 159.094 39.228 185.895-10.386M1073.839 962.97h36.138l79.276 78.609 219.163 120.931"/>
        </g>
    </g>
</svg>
