<svg xmlns="http://www.w3.org/2000/svg" width="63" height="62" viewBox="0 0 63 62">
    <path fill="#FCFBFA" fill-rule="evenodd" stroke="#FCFBFA" stroke-width="2" d="M24.388 1C11.468 1 1 11.53 1 24.491c0 12.97 10.469 23.491 23.388 23.491 6.514 0 12.403-2.696 16.648-7.007l19.752 19.82a.712.712 0 0 0 1.19-.333.717.717 0 0 0-.192-.69L42.01 39.93c3.6-4.132 5.808-9.523 5.808-15.439C47.82 11.53 37.314 1 24.388 1zm0 1.424c12.16 0 22.013 9.875 22.013 22.067 0 12.2-9.854 22.068-22.013 22.068-12.153 0-21.97-9.868-21.97-22.068 0-12.192 9.817-22.067 21.97-22.067z"/>
</svg>
