<svg xmlns="http://www.w3.org/2000/svg" width="82" height="65" viewBox="0 0 82 65">
    <g fill="#FCFBFA" fill-rule="nonzero" stroke="#FCFBFA" stroke-width=".72">
        <path d="M40.91 48.552c-.833 0-1.63.152-2.374.419L28.96 31.086a1.105 1.105 0 0 0-1.502-.453c-.54.294-.74.972-.45 1.516l9.577 17.887a7.218 7.218 0 0 0-2.82 5.725c0 3.975 3.206 7.208 7.145 7.208 3.94 0 7.144-3.234 7.144-7.208 0-3.975-3.203-7.209-7.143-7.209zm0 12.18c-2.716 0-4.926-2.23-4.926-4.971 0-2.74 2.21-4.971 4.927-4.971 2.716 0 4.927 2.23 4.927 4.97 0 2.741-2.211 4.972-4.927 4.972z"/>
        <path d="M80.822 41.305v-.002-.016a40.31 40.31 0 0 0-4.723-18.981c-.008-.015-.007-.031-.015-.046-.006-.012-.018-.019-.024-.03A40.419 40.419 0 0 0 61.62 6.872c-.023-.018-.037-.043-.063-.058-.028-.018-.061-.018-.09-.032a39.402 39.402 0 0 0-20.556-5.767 39.393 39.393 0 0 0-20.558 5.768c-.028.014-.062.015-.09.032-.026.016-.04.042-.064.058A40.405 40.405 0 0 0 5.76 22.23c-.006.011-.018.018-.024.03-.008.015-.007.03-.013.045A40.318 40.318 0 0 0 1 41.287V41.309c.004 7.94 2.29 15.605 6.615 22.17v.001l.001.002c.016.024.037.041.054.063.04.054.082.109.13.152.02.02.046.03.067.047.05.04.1.08.157.111.046.024.096.037.143.055.037.013.07.031.108.04a1.101 1.101 0 0 0 .88-.154l.001-.002 9.153-6.105c.511-.34.65-1.034.314-1.55a1.101 1.101 0 0 0-1.536-.316l-8.2 5.47c-3.501-5.67-5.432-12.144-5.629-18.869h9.853c.612 0 1.108-.5 1.108-1.118 0-.619-.496-1.119-1.108-1.119H3.245a38.058 38.058 0 0 1 3.946-15.866l8.69 4.71a1.107 1.107 0 0 0 1.501-.456 1.124 1.124 0 0 0-.453-1.515l-8.686-4.708A38.169 38.169 0 0 1 20.484 9.349l5.112 8.523a1.104 1.104 0 0 0 1.522.377c.525-.32.692-1.008.375-1.536L22.38 8.188a37.18 37.18 0 0 1 17.422-4.906v9.972c0 .617.497 1.119 1.109 1.119s1.108-.502 1.108-1.119V3.282a37.176 37.176 0 0 1 17.423 4.906l-5.099 8.526a1.125 1.125 0 0 0 .377 1.536 1.1 1.1 0 0 0 1.522-.38l5.096-8.52a38.173 38.173 0 0 1 12.24 13.002l-8.686 4.71a1.123 1.123 0 0 0-.452 1.514 1.107 1.107 0 0 0 1.503.456l8.69-4.71a38.058 38.058 0 0 1 3.945 15.866h-9.85c-.612 0-1.108.5-1.108 1.119s.496 1.119 1.109 1.119h9.835c-.196 6.725-2.127 13.2-5.628 18.87l-8.2-5.455a1.106 1.106 0 0 0-1.537.318 1.125 1.125 0 0 0 .315 1.55l9.157 6.09c.114.075.236.119.361.15.04.008.076.011.116.016.044.005.087.02.132.02.058 0 .115-.012.171-.021.023-.005.044-.004.066-.01.12-.025.234-.074.34-.14l.07-.048c.103-.075.198-.164.274-.277 0-.002.003-.002.004-.004l.001-.002.001-.001v-.002c4.324-6.563 6.612-14.23 6.616-22.169-.003-.004-.001-.005-.001-.006z"/>
    </g>
</svg>
