<svg xmlns="http://www.w3.org/2000/svg" width="98" height="97" viewBox="0 0 98 97">
    <g fill="#FCFBFA" fill-rule="nonzero" stroke="#FCFBFA" stroke-width="1.1">
        <path d="M49 96c-20.461-.008-38.668-12.85-45.35-31.987-6.682-19.138-.371-40.363 15.72-52.87C35.462-1.362 57.796-2.4 75 8.56c.696.446.895 1.365.445 2.054a1.51 1.51 0 0 1-2.075.44C56.077.03 33.432 2.014 18.365 15.871 3.298 29.73-.356 51.934 9.49 69.806c9.847 17.872 30.686 26.862 50.62 21.837C80.043 86.617 93.995 68.856 94 48.5c0-.82.672-1.484 1.5-1.484S97 47.68 97 48.5C96.972 74.722 75.498 95.973 49 96z"/>
        <path d="M49.34 63.502c-.398 0-.779-.157-1.06-.435l-22-21.771a1.473 1.473 0 0 1 .037-2.062 1.511 1.511 0 0 1 2.083-.036L49.34 59.92l44.26-43.8a1.511 1.511 0 0 1 2.083.037c.571.565.588 1.477.037 2.062L50.4 63.067a1.508 1.508 0 0 1-1.06.435z"/>
    </g>
</svg>
