<svg xmlns="http://www.w3.org/2000/svg" width="82" height="82" viewBox="0 0 82 82">
    <g fill="none" fill-rule="evenodd">
        <path fill="#FCFBFA" d="M81.362 40.681c0 22.467-18.213 40.681-40.681 40.681C18.214 81.362 0 63.148 0 40.682 0 18.212 18.214 0 40.681 0c22.468 0 40.681 18.213 40.681 40.681"/>
        <path fill="#514E4E" d="M20.863 57.04a26.543 26.543 0 0 0 14.375 4.215c17.412 0 27.248-14.707 26.656-27.898a18.983 18.983 0 0 0 4.68-4.854 18.71 18.71 0 0 1-5.386 1.476 9.39 9.39 0 0 0 4.121-5.188 18.791 18.791 0 0 1-5.953 2.277 9.368 9.368 0 0 0-6.847-2.962c-6.052 0-10.5 5.65-9.134 11.515-7.795-.39-14.704-4.124-19.329-9.799-2.457 4.216-1.274 9.732 2.902 12.521A9.327 9.327 0 0 1 22.7 37.17c-.1 4.347 3.012 8.41 7.522 9.316a9.374 9.374 0 0 1-4.233.16 9.379 9.379 0 0 0 8.76 6.512 18.846 18.846 0 0 1-13.885 3.884"/>
    </g>
</svg>
